<svg width="20" height="25" viewBox="0 0 20 25" fill="none" xmlns="http://www.w3.org/2000/svg">
<path d="M0.553438 1.30133C-0.184479 2.1738 -0.184479 3.58835 0.55344 4.46082L7.32778 12.4704L0.553436 20.48C-0.184481 21.3525 -0.18448 22.767 0.553437 23.6395C1.29136 24.512 2.48776 24.512 3.22567 23.6395L10 15.6299L16.7743 23.6395C17.5122 24.5119 18.7086 24.5119 19.4466 23.6395C20.1845 22.767 20.1845 21.3525 19.4466 20.48L12.6722 12.4704L19.4466 4.46086C20.1845 3.58838 20.1845 2.17383 19.4466 1.30136C18.7086 0.428888 17.5122 0.428888 16.7743 1.30136L10 9.31092L3.22567 1.30133C2.48775 0.428854 1.29136 0.428854 0.553438 1.30133Z" fill="#754E29"/>
</svg>
