<svg width="56" height="72" viewBox="0 0 56 72" fill="none" xmlns="http://www.w3.org/2000/svg">
<g id="Group 3">
<g id="Group 1">
<path id="Vector" d="M35.7841 1.09205C35.2293 1.71078 33.9146 3.02103 32.8652 4.02798C29.3673 7.35214 28.6556 8.54107 28.5591 11.2586C28.4868 13.4666 28.9934 15.1409 30.3081 17.0456C30.6579 17.5551 30.9474 17.9433 30.9474 17.8948C30.9474 17.8584 30.7303 17.3853 30.4649 16.8515C29.4517 14.8133 29.1502 12.3384 29.705 10.5792C30.2237 8.92929 30.9836 7.93447 33.5527 5.54448C34.0955 5.04707 34.7589 4.35555 35.0363 4.02798L35.555 3.42138L35.4826 5.9691C35.4464 7.65544 35.362 8.82011 35.2293 9.4267C34.783 11.477 33.9146 13.1027 32.3345 14.8861C31.1886 16.1842 30.8629 16.9243 31.1765 17.5309C31.2248 17.64 31.3092 18.1011 31.3575 18.5378L31.4298 19.3385L30.7423 19.7995C28.4144 21.3524 26.774 23.5968 26.1106 26.1445C25.9297 26.8239 25.8573 27.4791 25.8573 28.5345C25.8453 30.779 26.2554 32.6473 27.2927 35.0009L27.8354 36.2383L27.6425 37.2089C27.4495 38.1916 27.3892 41.1154 27.558 41.8797C27.6183 42.183 27.6907 42.2437 27.9922 42.2437H28.3541L28.4385 40.6786C28.7521 35.0979 30.5855 31.8587 34.8916 29.2746C38.2085 27.2849 39.1855 26.1688 41.3928 21.8498C43.1297 18.4165 43.6846 17.5066 45.0234 15.7717L45.7833 14.789L44.7098 15.25C42.9729 16.0022 40.4762 16.7544 37.4607 17.4338C34.5659 18.0768 33.2512 18.4529 32.25 18.9624C31.9364 19.1201 31.647 19.2536 31.6108 19.2536C31.5746 19.2536 31.5625 18.7683 31.5987 18.1617C31.659 16.8636 31.6711 16.8393 33.5406 14.874C34.5538 13.8185 34.976 13.2604 35.3258 12.5689C36.0977 11.0281 36.158 10.5792 36.0736 7.60691C35.9892 4.81656 36.1339 2.99677 36.6164 0.97073C36.737 0.449055 36.8335 0.0123024 36.8214 0.000171661C36.8094 -0.0119591 36.339 0.485451 35.7841 1.09205ZM41.3446 20.115C38.9202 24.6038 37.2315 26.5085 33.3597 29.1411C32.5998 29.6628 31.7073 30.3179 31.3816 30.5848C30.1875 31.5797 28.8245 33.545 28.3058 35.013C28.1852 35.3648 28.0526 35.6075 28.0164 35.5468C27.8234 35.2435 27.3047 32.7686 27.1841 31.6161C26.7861 27.7945 28.1973 24.4461 31.1645 22.2017C32.8652 20.9035 34.4091 20.3091 37.521 19.7389C38.8478 19.4962 40.9586 18.8775 41.8633 18.4771C42.0683 18.3922 42.2372 18.3316 42.2613 18.3437C42.2734 18.3558 41.8633 19.1565 41.3446 20.115Z" fill="#151618"/>
<path id="Vector_2" d="M14.5613 4.12258C15.2807 6.85604 15.4965 10.4399 15.1488 13.793C14.7172 17.9721 15.0769 19.2356 17.6425 22.6737C18.3379 23.597 19.1172 24.7997 19.393 25.3343C20.1722 26.9257 20.5919 29.1854 20.6039 31.9067V33.0366L20.3161 32.9151C19.6447 32.6599 18.4338 32.5506 15.3886 32.4899C13.6142 32.4534 11.7798 32.3684 11.3123 32.3198C10.8567 32.259 10.461 32.2347 10.449 32.2469C10.4251 32.259 10.6648 32.4534 10.9886 32.6842C12.3433 33.6683 13.7101 34.9439 15.2927 36.7055C16.2278 37.7381 17.3428 38.8801 17.7864 39.2324C19.6807 40.751 21.8507 41.6379 24.4764 41.9537C25.5554 42.0874 25.1238 41.6743 23.3014 40.8725C20.4 39.5847 18.9494 38.5399 16.7194 36.1466C15.8801 35.2476 14.8611 34.2879 14.4654 34.0085L13.7461 33.5225H15.1608C18.8774 33.5225 20.9755 34.2514 22.7619 36.1588C23.6491 37.0942 24.2845 38.2605 24.6082 39.5118C24.7041 39.9127 24.8121 40.265 24.848 40.3015C24.9679 40.4108 24.9319 38.8679 24.8001 38.0175C24.5243 36.256 23.1336 34.3122 21.539 33.4618L20.8436 33.0973V31.0928C20.8436 27.108 20.496 25.7352 18.6736 22.6251C16.2638 18.4945 15.8681 16.8666 15.9401 11.1445C15.9641 9.37083 16 7.91298 16.012 7.92513C16.012 7.93728 16.2638 8.27744 16.5515 8.67835C16.8513 9.07926 17.9183 10.282 18.9374 11.3511C21.4071 13.9387 22.3543 15.433 22.9417 17.6806C23.6011 20.1467 23.0616 23.597 21.503 26.9257C21.2153 27.5453 20.9995 28.0556 21.0115 28.0556C21.0355 28.0556 21.2393 27.764 21.4791 27.3995C23.3614 24.5324 24.3085 21.3009 24.1646 18.2758C24.0807 16.6236 23.757 15.3359 23.0736 13.9023C22.3783 12.4202 21.575 11.3754 19.2491 8.93347C17.4387 7.02612 16.1918 5.61687 14.885 4.06183L14.3815 3.4544L14.5613 4.12258Z" fill="#151618"/>
<path id="Vector_3" d="M36.1806 33.8993C33.4267 34.4911 31.5545 36.9548 31.5425 39.974C31.5425 40.5779 31.5183 40.6262 31.168 40.7469C30.54 40.9643 30.9989 41.073 32.9436 41.1576C35.7216 41.2783 37.4247 40.9523 38.8741 40.0103C39.2727 39.7566 40.2752 38.9475 41.1086 38.2108C42.7996 36.7374 43.6693 36.1094 45.0946 35.3486L46.0488 34.8413L44.8892 34.7568C44.2611 34.7206 43.1378 34.5636 42.389 34.4307C41.6401 34.2979 40.4564 34.0805 39.7559 33.9597C38.2823 33.694 37.2194 33.6699 36.1806 33.8993ZM40.1665 35.409C40.7584 35.5539 41.6763 35.7109 42.1836 35.7471L43.1258 35.8316L41.8092 36.8944C39.8042 38.5127 38.4755 39.2494 36.7725 39.6842C35.9028 39.9136 32.0135 40.5054 31.929 40.4209C31.8203 40.3122 32.1706 39.189 32.5933 38.3074C33.3301 36.7736 34.7191 35.6746 36.4705 35.2278C37.3643 34.9983 38.7654 35.0708 40.1665 35.409Z" fill="#151618"/>
<path id="Vector_4" d="M9.23552 47.1115C9.09042 53.6726 9.42899 55.8922 11.0614 59.1971C11.9199 60.9288 13.3105 62.9532 14.302 63.9045C14.5438 64.1362 14.7373 64.3557 14.7373 64.3923C14.7373 64.4411 11.7264 64.4533 8.06261 64.4289C4.38671 64.4045 1.25494 64.4289 1.09774 64.4655C0.952641 64.5021 0.759173 64.6728 0.686622 64.8313C0.577796 65.0874 0.589887 65.1728 0.771264 65.3801C0.988917 65.624 1.12193 65.624 28.0624 65.624C46.5024 65.624 55.2085 65.5874 55.3778 65.5021C55.6922 65.3313 55.6922 64.6972 55.3778 64.5264C55.2206 64.4533 52.7297 64.4045 48.1106 64.4045H41.0853L41.8229 63.5142C43.9269 61.0142 45.2932 58.2702 46.188 54.7702C46.442 53.8068 46.4661 53.3921 46.5024 48.514L46.5629 43.3066H27.9415H9.32016L9.23552 47.1115Z" fill="#151618"/>
<path id="Vector_5" d="M4.21688 67.2749C8.30269 69.2149 14.6007 70.7956 20.4755 71.3584C21.5151 71.4662 21.9865 71.55 21.8052 71.5979C21.5514 71.6698 21.5393 71.6817 21.7448 71.6937C21.8778 71.7057 22.6998 71.7656 23.558 71.8374C27.9823 72.1607 37.4595 71.9691 37.1935 71.55C37.1572 71.4901 37.1693 71.4662 37.2419 71.5021C37.3023 71.538 37.5199 71.5261 37.7133 71.4662C38.0518 71.3704 38.0518 71.3704 37.5803 71.3464C37.2902 71.3345 37.9067 71.1908 39.0914 70.9872C42.7783 70.3645 45.8124 69.6101 48.3026 68.7C49.729 68.1731 52.4972 66.9756 52.6906 66.784C52.751 66.7241 43.3102 66.6762 27.9098 66.6882L3.00806 66.7002L4.21688 67.2749Z" fill="#151618"/>
</g>
</g>
</svg>
