<svg width="69" height="86" viewBox="0 0 69 86" fill="none" xmlns="http://www.w3.org/2000/svg">
<g id="Group 3">
<g id="Group 1">
<path id="Vector" d="M44.0792 1.28976C43.3891 2.0205 41.7537 3.56796 40.4485 4.75721C36.0976 8.68317 35.2124 10.0874 35.0923 13.2969C35.0023 15.9047 35.6325 17.882 37.2678 20.1315C37.7029 20.7333 38.063 21.1918 38.063 21.1345C38.063 21.0915 37.7929 20.5327 37.4628 19.9023C36.2026 17.4951 35.8275 14.5721 36.5176 12.4945C37.1628 10.5459 38.108 9.37094 41.3037 6.54826C41.9788 5.96079 42.804 5.14408 43.149 4.75721L43.7942 4.04079L43.7042 7.04974C43.6591 9.04138 43.5541 10.4169 43.3891 11.1333C42.834 13.5548 41.7537 15.4748 39.7883 17.5811C38.363 19.1142 37.958 19.9882 38.348 20.7046C38.408 20.8336 38.5131 21.3781 38.5731 21.8939L38.6631 22.8396L37.8079 23.384C34.9123 25.2181 32.8719 27.8688 32.0467 30.8778C31.8217 31.6801 31.7316 32.4539 31.7316 33.7004C31.7166 36.3512 32.2267 38.5577 33.517 41.3374L34.1922 42.7989L33.9521 43.9452C33.7121 45.1058 33.637 48.5589 33.8471 49.4616C33.9221 49.8198 34.0121 49.8915 34.3872 49.8915H34.8373L34.9423 48.0431C35.3324 41.4521 37.6129 37.6264 42.969 34.5745C47.0949 32.2246 48.3101 30.9064 51.0557 25.8055C53.2162 21.7506 53.9063 20.676 55.5716 18.627L56.5168 17.4664L55.1816 18.0109C53.0211 18.8993 49.9155 19.7876 46.1647 20.59C42.5639 21.3494 40.9286 21.7936 39.6833 22.3954C39.2932 22.5817 38.9332 22.7393 38.8881 22.7393C38.8431 22.7393 38.8281 22.1661 38.8731 21.4497C38.9482 19.9166 38.9632 19.8879 41.2887 17.5667C42.5489 16.3202 43.074 15.6611 43.5091 14.8444C44.4693 13.0247 44.5443 12.4945 44.4393 8.98407C44.3343 5.68856 44.5143 3.53931 45.1145 1.14647C45.2645 0.530357 45.3845 0.014534 45.3695 0.000205994C45.3545 -0.014122 44.7694 0.573341 44.0792 1.28976ZM50.9957 23.7566C47.9801 29.0581 45.8796 31.3076 41.0636 34.4169C40.1184 35.033 39.0082 35.8067 38.6031 36.1219C37.1178 37.2969 35.4224 39.618 34.7773 41.3518C34.6273 41.7673 34.4622 42.0539 34.4172 41.9822C34.1772 41.624 33.532 38.701 33.382 37.3398C32.8869 32.8264 34.6423 28.8718 38.333 26.2211C40.4485 24.6879 42.3689 23.9858 46.2397 23.3124C47.89 23.0258 50.5156 22.2951 51.6408 21.8223C51.8959 21.722 52.1059 21.6503 52.1359 21.6646C52.1509 21.679 51.6408 22.6246 50.9957 23.7566Z" fill="#151618"/>
<path id="Vector_2" d="M17.6811 4.86839C18.5758 8.09672 18.8443 12.3294 18.4118 16.2895C17.8749 21.2253 18.3223 22.7175 21.5137 26.778C22.3786 27.8685 23.348 29.2889 23.6909 29.9202C24.6603 31.7998 25.1822 34.4686 25.1971 37.6826V39.017L24.8392 38.8735C24.0041 38.5722 22.4979 38.443 18.7101 38.3713C16.503 38.3282 14.2213 38.2278 13.6397 38.1704C13.073 38.0987 12.5809 38.07 12.566 38.0843C12.5361 38.0987 12.8344 38.3282 13.237 38.6009C14.9222 39.7631 16.6223 41.2696 18.5908 43.3501C19.754 44.5697 21.1409 45.9184 21.6926 46.3345C24.0489 48.128 26.7481 49.1754 30.014 49.5485C31.3562 49.7063 30.8193 49.2185 28.5525 48.2715C24.9436 46.7506 23.1392 45.5167 20.3654 42.6901C19.3215 41.6283 18.0539 40.4948 17.5618 40.1648L16.667 39.5909H18.4267C23.0497 39.5909 25.6594 40.4518 27.8815 42.7044C28.985 43.8092 29.7754 45.1867 30.178 46.6645C30.2973 47.138 30.4316 47.5541 30.4763 47.5971C30.6254 47.7263 30.5807 45.9041 30.4166 44.8997C30.0737 42.8192 28.3438 40.5235 26.3604 39.5191L25.4954 39.0887V36.7213C25.4954 32.0151 25.0629 30.3937 22.7962 26.7206C19.7987 21.8422 19.3066 19.9196 19.396 13.1616C19.4259 11.0668 19.4706 9.34501 19.4855 9.35936C19.4855 9.3737 19.7987 9.77545 20.1566 10.2489C20.5294 10.7224 21.8567 12.1429 23.1243 13.4055C26.1963 16.4617 27.3744 18.2265 28.1052 20.8809C28.9254 23.7936 28.2543 27.8685 26.3156 31.7998C25.9577 32.5316 25.6893 33.1342 25.7042 33.1342C25.734 33.1342 25.9875 32.7899 26.2858 32.3594C28.6271 28.9733 29.8052 25.1567 29.6263 21.584C29.5219 19.6326 29.1192 18.1117 28.2692 16.4186C27.4043 14.6682 26.4051 13.4342 23.512 10.5503C21.2602 8.29759 19.7092 6.63321 18.0837 4.79665L17.4574 4.07924L17.6811 4.86839Z" fill="#151618"/>
<path id="Vector_3" d="M44.5727 40.0357C41.1472 40.7346 38.8185 43.6443 38.8034 47.2102C38.8034 47.9233 38.7734 47.9804 38.3377 48.123C37.5565 48.3798 38.1274 48.5081 40.5462 48.608C44.0017 48.7506 46.1201 48.3655 47.923 47.253C48.4188 46.9534 49.6658 45.9978 50.7024 45.1277C52.8058 43.3876 53.8875 42.6459 55.6604 41.7473L56.8473 41.1483L55.4049 41.0484C54.6237 41.0056 53.2265 40.8202 52.295 40.6633C51.3635 40.5064 49.8911 40.2497 49.0198 40.107C47.1868 39.7932 45.8647 39.7647 44.5727 40.0357ZM49.5306 41.8186C50.2667 41.9898 51.4086 42.1752 52.0396 42.218L53.2114 42.3179L51.5738 43.573C49.0799 45.4843 47.4272 46.3544 45.3088 46.8678C44.2271 47.1389 39.3894 47.8378 39.2842 47.7379C39.149 47.6095 39.5847 46.2831 40.1105 45.2418C41.027 43.4304 42.7548 42.1324 44.9332 41.6047C46.045 41.3337 47.7878 41.4193 49.5306 41.8186Z" fill="#151618"/>
<path id="Vector_4" d="M11.0565 55.6405C10.876 63.3894 11.2971 66.0107 13.3276 69.914C14.3955 71.9592 16.1251 74.3502 17.3584 75.4736C17.6592 75.7473 17.8999 76.0065 17.8999 76.0497C17.8999 76.1074 14.1548 76.1218 9.59753 76.093C5.02522 76.0641 1.12973 76.093 0.9342 76.1362C0.753713 76.1794 0.513065 76.381 0.422822 76.5683C0.287458 76.8707 0.302498 76.9715 0.528106 77.2164C0.798835 77.5045 0.964283 77.5045 34.4745 77.5045C57.4113 77.5045 68.2405 77.4613 68.4511 77.3604C68.8421 77.1588 68.8421 76.4098 68.4511 76.2082C68.2555 76.1218 65.1572 76.0641 59.4117 76.0641H50.6732L51.5906 75.0127C54.2077 72.0601 55.9073 68.8194 57.0203 64.6857C57.3361 63.5478 57.3662 63.0581 57.4113 57.2968L57.4865 51.1467H34.3241H11.1617L11.0565 55.6405Z" fill="#151618"/>
<path id="Vector_5" d="M4.81415 79.4547C9.89634 81.7459 17.7301 83.6128 25.0377 84.2775C26.3308 84.4048 26.9172 84.5038 26.6916 84.5603C26.3759 84.6452 26.3608 84.6593 26.6164 84.6735C26.7818 84.6876 27.8043 84.7583 28.8719 84.8432C34.375 85.2251 46.1633 84.9988 45.8325 84.5038C45.7874 84.4331 45.8025 84.4048 45.8927 84.4472C45.9679 84.4896 46.2385 84.4755 46.4791 84.4048C46.9001 84.2916 46.9001 84.2916 46.3137 84.2633C45.9528 84.2492 46.7197 84.0795 48.1932 83.839C52.7792 83.1036 56.5532 82.2126 59.6507 81.1377C61.4249 80.5155 64.8682 79.1012 65.1088 78.8749C65.1839 78.8042 53.4408 78.7476 34.2848 78.7617L3.31055 78.7759L4.81415 79.4547Z" fill="#151618"/>
</g>
</g>
</svg>
