<svg width="10" height="12" viewBox="0 0 10 12" fill="none" xmlns="http://www.w3.org/2000/svg">
<g id="logos:paypal" clip-path="url(#clip0_183_78)">
<path id="Vector" d="M8.48292 0.9341C7.93862 0.303027 6.95472 0.0324707 5.69601 0.0324707H2.04288C1.91834 0.0324754 1.79789 0.077671 1.70318 0.159932C1.60847 0.242193 1.54572 0.356123 1.5262 0.481239L0.00510693 10.2945C-0.0251274 10.488 0.122177 10.6632 0.31499 10.6632H2.5703L3.13671 7.00876L3.11913 7.1232C3.15948 6.86488 3.37667 6.67435 3.63386 6.67435H4.70558C6.81097 6.67435 8.45952 5.80447 8.94108 3.28809C8.95538 3.21366 8.96776 3.14123 8.97847 3.07046C8.91769 3.03772 8.91769 3.03772 8.97847 3.07046C9.12187 2.14038 8.97749 1.50728 8.48292 0.9341Z" fill="#27346A"/>
<path id="Vector_2" d="M3.99968 2.73541C4.06133 2.70555 4.12877 2.69007 4.19706 2.69011H7.06104C7.40019 2.69011 7.71651 2.71256 8.00558 2.75989C8.08646 2.77301 8.16693 2.78867 8.24687 2.80685C8.36016 2.83229 8.47215 2.86341 8.58241 2.90011C8.72452 2.94839 8.85686 3.00462 8.97851 3.07046C9.12187 2.14002 8.97749 1.50728 8.48292 0.9341C7.93831 0.303027 6.95472 0.0324707 5.69601 0.0324707H2.04257C1.78534 0.0324707 1.56651 0.222961 1.5262 0.481239L0.00510714 10.2941C-0.0251272 10.488 0.122177 10.663 0.314677 10.663H2.5703L3.74542 3.0827C3.75697 3.00819 3.78615 2.93765 3.83044 2.87716C3.87473 2.81666 3.93281 2.76802 3.99968 2.73541Z" fill="#27346A"/>
<path id="Vector_3" d="M8.94129 3.28794C8.45973 5.80397 6.81121 6.67421 4.70578 6.67421H3.63375C3.37656 6.67421 3.15934 6.86474 3.11938 7.12305L2.41473 11.667C2.3884 11.8363 2.51715 11.9898 2.68559 11.9898H4.58676C4.69566 11.9897 4.80099 11.9502 4.88378 11.8782C4.96658 11.8063 5.02142 11.7066 5.03844 11.5972L5.05695 11.4986L5.41527 9.1886L5.43836 9.06093C5.45538 8.95152 5.51021 8.85187 5.593 8.77991C5.67579 8.70795 5.7811 8.66839 5.89 8.66835H6.17453C8.01621 8.66835 9.45828 7.90727 9.87969 5.7061C10.0556 4.78623 9.96457 4.01823 9.49926 3.47879C9.35813 3.3154 9.18285 3.18046 8.97867 3.07031C8.96762 3.14144 8.95563 3.21352 8.94129 3.28794Z" fill="#2790C3"/>
<path id="Vector_4" d="M8.47469 2.86593C8.3996 2.84363 8.32381 2.82388 8.24743 2.80672C8.16745 2.78884 8.08699 2.77328 8.00614 2.76008C7.71676 2.71243 7.40067 2.68994 7.06121 2.68994H4.19758C4.12924 2.68978 4.06175 2.7054 4.0002 2.7356C3.93326 2.7681 3.87511 2.81672 3.8308 2.87723C3.78649 2.93774 3.75735 3.00833 3.7459 3.08288L3.13723 7.00863L3.11965 7.12307C3.15969 6.86475 3.37688 6.67422 3.6341 6.67422H4.70614C6.81153 6.67422 8.46004 5.80434 8.9416 3.28796C8.95594 3.21353 8.96797 3.14141 8.97903 3.07033C8.85707 3.00484 8.72508 2.94826 8.58293 2.9003C8.54706 2.8882 8.51099 2.87675 8.47473 2.86593" fill="#1F264F"/>
</g>
<defs>
<clipPath id="clip0_183_78">
<rect width="10" height="12" fill="white"/>
</clipPath>
</defs>
</svg>
