<svg width="26" height="20" viewBox="0 0 26 20" fill="none" xmlns="http://www.w3.org/2000/svg">
<g id="logos:mastercard" clip-path="url(#clip0_183_66)">
<path id="Vector" d="M4.72673 19.9007V18.577C4.72673 18.0695 4.41452 17.7386 3.87939 17.7386C3.61187 17.7386 3.32202 17.8268 3.12133 18.1137C2.96533 17.871 2.7424 17.7386 2.40795 17.7386C2.18492 17.7386 1.96209 17.8047 1.78365 18.0475V17.7827H1.31544V19.9007H1.78365V18.7314C1.78365 18.3564 1.98434 18.1798 2.29654 18.1798C2.60854 18.1798 2.76474 18.3784 2.76474 18.7314V19.9007H3.23294V18.7314C3.23294 18.3564 3.45577 18.1798 3.74563 18.1798C4.05784 18.1798 4.21384 18.3784 4.21384 18.7314V19.9007H4.72673ZM11.6605 17.7827H10.9025V17.1429H10.4343V17.7827H10.0107V18.2018H10.4342V19.1727C10.4342 19.6581 10.6349 19.9448 11.1701 19.9448C11.3707 19.9448 11.5936 19.8787 11.7498 19.7905L11.6159 19.3933C11.4822 19.4815 11.3262 19.5036 11.2146 19.5036C10.9917 19.5036 10.9025 19.3713 10.9025 19.1506V18.2018H11.6605V17.7827ZM15.6292 17.7385C15.3616 17.7385 15.1833 17.871 15.0718 18.0475V17.7827H14.6036V19.9007H15.0718V18.7094C15.0718 18.3564 15.2278 18.1578 15.5176 18.1578C15.6068 18.1578 15.7183 18.1799 15.8075 18.2019L15.9413 17.7607C15.8521 17.7386 15.7183 17.7386 15.6292 17.7386V17.7385ZM9.63169 17.9592C9.40866 17.8047 9.09655 17.7386 8.76211 17.7386C8.22708 17.7386 7.87039 18.0033 7.87039 18.4225C7.87039 18.7756 8.13791 18.9741 8.60611 19.0403L8.82904 19.0624C9.07431 19.1064 9.20807 19.1727 9.20807 19.283C9.20807 19.4374 9.02973 19.5478 8.71752 19.5478C8.40542 19.5478 8.16015 19.4374 8.00405 19.3272L7.78112 19.6801C8.02639 19.8566 8.36084 19.9448 8.69518 19.9448C9.31948 19.9448 9.67627 19.6581 9.67627 19.2609C9.67627 18.8858 9.38641 18.6873 8.94045 18.6211L8.71752 18.599C8.51684 18.5769 8.36083 18.5329 8.36083 18.4005C8.36083 18.246 8.51683 18.1578 8.76211 18.1578C9.02973 18.1578 9.29724 18.2681 9.431 18.3343L9.63169 17.9592ZM22.0726 17.7386C21.805 17.7386 21.6266 17.871 21.5151 18.0475V17.7827H21.0469V19.9007H21.5151V18.7094C21.5151 18.3564 21.6712 18.1578 21.961 18.1578C22.0502 18.1578 22.1618 18.1799 22.2509 18.2019L22.3847 17.7607C22.2955 17.7386 22.1618 17.7386 22.0726 17.7386ZM16.0974 18.8417C16.0974 19.4815 16.5432 19.9448 17.2345 19.9448C17.5466 19.9448 17.7695 19.8787 17.9924 19.7022L17.7695 19.3272C17.5911 19.4595 17.4128 19.5256 17.2121 19.5256C16.8331 19.5256 16.5656 19.2609 16.5656 18.8417C16.5656 18.4446 16.8331 18.1798 17.2121 18.1578C17.4128 18.1578 17.5911 18.2239 17.7695 18.3564L17.9924 17.9813C17.7695 17.8047 17.5466 17.7386 17.2345 17.7386C16.5432 17.7386 16.0974 18.2019 16.0974 18.8417ZM20.4227 18.8417V17.7827H19.9545V18.0475C19.7984 17.849 19.5755 17.7386 19.2856 17.7386C18.6836 17.7386 18.2154 18.2019 18.2154 18.8417C18.2154 19.4815 18.6836 19.9448 19.2856 19.9448C19.5977 19.9448 19.8207 19.8346 19.9545 19.636V19.9007H20.4227V18.8417ZM18.7059 18.8417C18.7059 18.4666 18.9512 18.1578 19.3524 18.1578C19.7315 18.1578 19.9991 18.4446 19.9991 18.8417C19.9991 19.2168 19.7315 19.5256 19.3524 19.5256C18.9512 19.5035 18.7059 19.2168 18.7059 18.8417ZM13.1098 17.7386C12.4855 17.7386 12.0395 18.1798 12.0395 18.8417C12.0395 19.5036 12.4854 19.9448 13.132 19.9448C13.4441 19.9448 13.7563 19.8566 14.0016 19.6581L13.7786 19.3272C13.6002 19.4595 13.3773 19.5478 13.1544 19.5478C12.8645 19.5478 12.5747 19.4154 12.5077 19.0402H14.0908V18.8638C14.1131 18.1798 13.7119 17.7386 13.1098 17.7386ZM13.1098 18.1357C13.3996 18.1357 13.6003 18.3123 13.6448 18.6432H12.5301C12.5747 18.3564 12.7754 18.1357 13.1098 18.1357ZM24.7257 18.8417V16.9443H24.2575V18.0475C24.1014 17.849 23.8785 17.7386 23.5886 17.7386C22.9866 17.7386 22.5184 18.2019 22.5184 18.8417C22.5184 19.4815 22.9866 19.9448 23.5886 19.9448C23.9008 19.9448 24.1237 19.8346 24.2575 19.636V19.9007H24.7257V18.8417ZM23.009 18.8417C23.009 18.4666 23.2542 18.1578 23.6555 18.1578C24.0346 18.1578 24.3021 18.4446 24.3021 18.8417C24.3021 19.2168 24.0346 19.5256 23.6555 19.5256C23.2542 19.5035 23.009 19.2168 23.009 18.8417ZM7.3575 18.8417V17.7827H6.8893V18.0475C6.73319 17.849 6.51026 17.7386 6.22041 17.7386C5.61844 17.7386 5.15024 18.2019 5.15024 18.8417C5.15024 19.4815 5.61844 19.9448 6.22041 19.9448C6.53261 19.9448 6.75554 19.8346 6.8893 19.636V19.9007H7.3575V18.8417ZM5.61844 18.8417C5.61844 18.4666 5.86372 18.1578 6.26499 18.1578C6.64402 18.1578 6.91164 18.4446 6.91164 18.8417C6.91164 19.2168 6.64402 19.5256 6.26499 19.5256C5.86372 19.5035 5.61844 19.2168 5.61844 18.8417Z" fill="#151618"/>
<path id="Vector_2" d="M9.47559 1.69873H16.4986V14.1863H9.47559V1.69873Z" fill="#FF5F00"/>
<path id="Vector_3" d="M9.92154 7.94261C9.92154 5.40543 11.1255 3.15497 12.9759 1.69879C11.616 0.639799 9.8993 0 8.02648 0C3.58952 0 0 3.55206 0 7.94261C0 12.3331 3.58952 15.8852 8.02638 15.8852C9.8992 15.8852 11.6159 15.2454 12.9759 14.1863C11.1255 12.7523 9.92154 10.4798 9.92154 7.94261Z" fill="#EB001B"/>
<path id="Vector_4" d="M25.9742 7.94261C25.9742 12.3331 22.3847 15.8852 17.9478 15.8852C16.075 15.8852 14.3583 15.2454 12.9983 14.1863C14.8711 12.7303 16.0528 10.4798 16.0528 7.94261C16.0528 5.40543 14.8487 3.15497 12.9983 1.69879C14.3582 0.639799 16.075 0 17.9478 0C22.3847 0 25.9742 3.57417 25.9742 7.94261Z" fill="#F79E1B"/>
</g>
<defs>
<clipPath id="clip0_183_66">
<rect width="26" height="20" fill="white"/>
</clipPath>
</defs>
</svg>
